<svg width="20" height="20" viewBox="0 0 20 20" fill="none" xmlns="http://www.w3.org/2000/svg">
<path fill-rule="evenodd" clip-rule="evenodd" d="M9.94001 2.44104L18.698 6.82004L9.94001 11.199L1.18201 6.82004L9.94001 2.44104ZM3.41801 6.82004L9.94001 10.081L16.462 6.82004L9.94001 3.55904L3.41801 6.82004Z" fill="#0F8277"/>
<path fill-rule="evenodd" clip-rule="evenodd" d="M5.62 11.48V8.72998H6.62V11.48C6.62 11.967 6.913 12.467 7.513 12.868C8.109 13.267 8.96499 13.53 9.93999 13.53C10.915 13.53 11.77 13.267 12.367 12.868C12.967 12.468 13.26 11.968 13.26 11.48V8.72998H14.26V11.48C14.26 12.403 13.703 13.178 12.923 13.7C12.139 14.223 11.085 14.53 9.93999 14.53C8.79499 14.53 7.74 14.223 6.957 13.7C6.177 13.178 5.62 12.403 5.62 11.48Z" fill="#0F8277"/>
<path fill-rule="evenodd" clip-rule="evenodd" d="M9.49305 6.59706C9.55229 6.4786 9.65611 6.38848 9.78172 6.34648C9.90734 6.30448 10.0445 6.31404 10.1631 6.37306L16.9531 9.76306C17.0362 9.80448 17.1061 9.86825 17.1551 9.9472C17.204 10.0262 17.23 10.1172 17.2301 10.2101V12.3301C17.2301 12.4627 17.1774 12.5898 17.0836 12.6836C16.9898 12.7774 16.8627 12.8301 16.7301 12.8301C16.5974 12.8301 16.4703 12.7774 16.3765 12.6836C16.2827 12.5898 16.2301 12.4627 16.2301 12.3301V10.5201L9.71705 7.26606C9.59859 7.20682 9.50847 7.103 9.46647 6.97739C9.42448 6.85178 9.43404 6.71563 9.49305 6.59706Z" fill="#0F8277"/>
<path fill-rule="evenodd" clip-rule="evenodd" d="M16.008 11.8679C16.2893 11.7442 16.5978 11.6953 16.9035 11.7261C17.2092 11.7569 17.5017 11.8664 17.7526 12.0438C18.0035 12.2212 18.2042 12.4605 18.3352 12.7384C18.4662 13.0164 18.523 13.3235 18.5 13.6299V17.4999H14.95V13.6299C14.9226 13.2629 15.0096 12.8964 15.199 12.5808C15.3885 12.2653 15.6711 12.0162 16.008 11.8679ZM16.725 12.7169C16.6168 12.7169 16.5097 12.7395 16.4106 12.7831C16.3116 12.8267 16.2227 12.8905 16.1496 12.9703C16.0765 13.0502 16.0208 13.1444 15.9861 13.2469C15.9514 13.3495 15.9385 13.4581 15.948 13.5659L15.95 13.5879V16.4999H17.5V13.5879L17.502 13.5659C17.5116 13.4581 17.4986 13.3495 17.4639 13.2469C17.4292 13.1444 17.3736 13.0502 17.3005 12.9703C17.2274 12.8905 17.1385 12.8267 17.0394 12.7831C16.9404 12.7395 16.8333 12.7169 16.725 12.7169Z" fill="#0F8277"/>
</svg>
